<?xml version="1.0" standalone="no"?>
<!DOCTYPE svg PUBLIC "-//W3C//DTD SVG 20010904//EN"
 "http://www.w3.org/TR/2001/REC-SVG-20010904/DTD/svg10.dtd">
<svg version="1.0" xmlns="http://www.w3.org/2000/svg"
 width="16.000000pt" height="16.000000pt" viewBox="0 0 16.000000 16.000000"
 preserveAspectRatio="xMidYMid meet">
<metadata>
Created by potrace 1.11, written by Peter Selinger 2001-2013
</metadata>
<g transform="translate(0.000000,16.000000) scale(0.005926,-0.005926)"
fill="#000000" stroke="none">
<path d="M1803 2519 c-10 -10 -108 -55 -138 -63 -5 -2 -32 -13 -60 -25 -27
-13 -71 -31 -96 -41 -26 -10 -66 -28 -90 -39 -24 -11 -147 -63 -274 -116 -126
-53 -248 -105 -270 -115 -22 -9 -65 -28 -95 -40 -48 -20 -93 -61 -367 -339
l-312 -316 -1 -73 c0 -71 1 -73 23 -67 12 4 36 16 53 26 24 14 33 16 36 7 2
-7 4 -257 4 -555 l-1 -542 80 -26 c44 -14 174 -54 290 -89 116 -35 230 -72
255 -82 38 -15 87 -18 310 -21 231 -3 262 -1 240 11 -14 8 -38 16 -55 19 -16
3 -71 19 -122 35 -51 16 -94 27 -97 24 -4 -3 -6 -1 -6 5 0 5 -6 10 -12 11 -19
1 -47 8 -98 25 -25 9 -79 25 -120 37 -41 12 -79 26 -85 31 -6 6 -10 135 -10
347 l0 336 -138 47 c-75 25 -137 44 -137 41 0 -2 -6 1 -14 7 -8 7 -17 8 -19 4
-3 -5 -7 -161 -8 -346 -2 -185 -6 -337 -9 -337 -14 0 -116 32 -123 39 -4 4 -9
270 -10 591 l-2 582 198 197 c109 108 200 198 202 199 2 2 80 -111 174 -252
l171 -256 -32 -45 c-25 -36 -32 -55 -33 -100 0 -30 2 -55 5 -55 4 0 21 17 39
38 97 109 178 200 198 222 72 78 119 132 166 187 28 34 57 61 64 60 6 -1 104
-125 218 -275 l207 -273 -28 -36 c-22 -29 -28 -49 -30 -96 -1 -32 2 -57 6 -55
5 2 127 120 271 262 199 197 263 256 270 245 5 -8 19 -30 31 -49 12 -19 24
-37 27 -40 4 -3 57 -81 120 -175 63 -93 118 -174 122 -179 5 -5 8 247 8 560
l0 570 -90 92 -91 91 -173 -88 -174 -89 -178 179 c-132 132 -182 176 -190 168z"/>
</g>
</svg>
